<svg xmlns:dc="http://purl.org/dc/elements/1.1/" xmlns:cc="http://creativecommons.org/ns#" xmlns:rdf="http://www.w3.org/1999/02/22-rdf-syntax-ns#" xmlns:svg="http://www.w3.org/2000/svg" xmlns="http://www.w3.org/2000/svg" xmlns:sodipodi="http://sodipodi.sourceforge.net/DTD/sodipodi-0.dtd" xmlns:inkscape="http://www.inkscape.org/namespaces/inkscape" width="100" height="100" viewBox="0 0 80 80" version="1.1" id="svg2" inkscape:version="0.48.2 r9819" sodipodi:docname="desk bell.svg">
  <metadata id="metadata10">
    <rdf:RDF>
      <cc:Work rdf:about="">
        <dc:format>image/svg+xml</dc:format>
        <dc:type rdf:resource="http://purl.org/dc/dcmitype/StillImage"/>
        <dc:title/>
      </cc:Work>
    </rdf:RDF>
  </metadata>
  <defs id="defs8"/>
  <sodipodi:namedview pagecolor="#ffffff" bordercolor="#666666" borderopacity="1" objecttolerance="10" gridtolerance="10" guidetolerance="10" inkscape:pageopacity="0" inkscape:pageshadow="2" inkscape:window-width="1366" inkscape:window-height="706" id="namedview6" showgrid="true" inkscape:zoom="2.585" inkscape:cx="50" inkscape:cy="50" inkscape:window-x="-8" inkscape:window-y="-8" inkscape:window-maximized="1" inkscape:current-layer="layer1">
    <inkscape:grid type="xygrid" id="grid3006"/>
  </sodipodi:namedview>
  <g inkscape:groupmode="layer" id="layer1" inkscape:label="draw" style="display:inline">
    <path style="font-size:medium;font-style:normal;font-variant:normal;font-weight:normal;font-stretch:normal;text-indent:0;text-align:start;text-decoration:none;line-height:normal;letter-spacing:normal;word-spacing:normal;text-transform:none;direction:ltr;block-progression:tb;writing-mode:lr-tb;text-anchor:start;baseline-shift:baseline;color:#000000;fill:#000000;fill-opacity:1;stroke:none;stroke-width:1px;marker:none;visibility:visible;display:inline;overflow:visible;enable-background:accumulate;font-family:Sans;-inkscape-font-specification:Sans" d="m 40.284625,11.819348 c -1.723836,0.01263 -3.18547,1.216464 -3.174057,2.773726 l 0,0.457522 0.457521,0 0.943639,-0.02859 0,2.287609 c -13.446959,0.255508 -20.628944,6.451156 -24.334443,12.639036 -3.749606,6.261534 -4.031911,12.496065 -4.031911,12.496065 l -0.02859,0.371737 0.371736,0.11438 c 0,0 18.308455,4.575219 30.453798,4.575219 10.975415,0 29.252803,-4.575219 29.252803,-4.575219 l 0.314546,-0.08578 0.02859,-0.343141 c 0,0 0.276689,-5.974817 -3.202653,-12.095734 C 63.891995,24.348115 56.708062,18.151288 42.171903,17.3668 l 0,-2.373394 0.886449,0 0.457521,0 0,-0.457522 c -0.01145,-1.562975 -1.510823,-2.729143 -3.231248,-2.716536 z m 0,0.915044 c 1.07542,-0.0079 1.807929,0.607065 2.087444,1.34397 l -0.657688,0 -0.457522,0 0,0.457522 0,3.259843 0,0.428927 0.428927,0.0286 c 14.60045,0.667243 21.50591,6.728951 24.849155,12.610446 3.182726,5.599107 3.074988,10.728442 3.059677,11.23788 -0.630713,0.156308 -18.124539,4.489433 -28.652305,4.489433 -11.689186,0 -29.157083,-4.324186 -29.824705,-4.489433 0.03613,-0.587239 0.400755,-5.937337 3.831745,-11.666807 3.622615,-6.049468 10.535119,-12.127075 24.019897,-12.238709 l 0.457522,0 0,-0.457522 0,-3.174058 0,-0.457522 -0.457522,0 -0.714878,0.02859 c 0.261949,-0.748778 0.955584,-1.393285 2.030253,-1.40116 z" id="path3002" inkscape:connector-curvature="0"/>
    <path style="fill:#000000;stroke:none" d="m 8.751483,43.806135 c 0,0 15.570297,4.980545 31.745425,5.403992 C 56.35508,49.625276 72,44 72,44 c 0,0 0.95299,3.04853 5.573625,5.69479 2.453599,1.405186 -0.121166,8.481602 -0.121166,8.481602 0,0 -11.946942,5.243927 -37.319048,5.452458 -24.954544,0.205098 -38.680952,-6.058288 -38.680952,-6.058288 0,0 -0.9622173,-6.858108 1.4830685,-8.118104 C 7.600852,47.04853 8.751483,43.806135 8.751483,43.806135 z" id="path3004" inkscape:connector-curvature="0" sodipodi:nodetypes="cscscscsc"/>
  </g>
</svg>