<?xml version="1.0" encoding="utf-8"?>
<!-- Generator: Adobe Illustrator 16.0.0, SVG Export Plug-In . SVG Version: 6.00 Build 0)  -->
<!DOCTYPE svg PUBLIC "-//W3C//DTD SVG 1.1//EN" "http://www.w3.org/Graphics/SVG/1.1/DTD/svg11.dtd">
<svg version="1.1" id="Layer_1" xmlns="http://www.w3.org/2000/svg" xmlns:xlink="http://www.w3.org/1999/xlink" x="0px" y="0px"
	 width="100px" height="100px" viewBox="0 0 100 100" enable-background="new 0 0 100 100" xml:space="preserve">
<path d="M89.69,29.04l2.426-3.167l-12.364-6.454l-4.968-4.81l-1.905,1.222l-8.754-4.57l-7.461,9.071
	c-3.938-2.552-9.207-5.78-11.889-6.613c-4.332-1.345-22.926-0.199-25.251-0.045L3.902,5.371l-0.695,1.31l15.808,8.401l0.185,0.1
	l0.211-0.015c0.205-0.014,20.661-1.358,24.925-0.032c2.478,0.771,7.526,3.86,11.377,6.351l-6.678,8.117
	c-3.166-3.068-6.315-7.209-6.36-7.268l-1.18,0.893c0.186,0.247,3.333,4.384,6.6,7.519l1.82,1.613
	c0.778,0.627,1.536,1.149,2.223,1.482l0.285,0.137c0.718,0.346,1.588,0.761,2.499,1.237l1.306,0.709
	c2.395,1.359,4.729,3.052,5.104,4.817c0.162,0.757-0.071,1.495-0.717,2.251c-0.959,1.128-2.552,1.787-4.606,1.902
	c-1.244,0.076-2.624-0.074-4.034-0.374l-1.479-0.359c-2.929-0.849-5.856-2.371-8.031-4.238l-3.405-2.349
	c-1.832-0.772-3.58-0.749-5.29-0.699c-2.395,0.062-4.659,0.121-7.413-1.9c-5.941-4.363-10.863-9.324-10.912-9.375l-1.054,1.043
	c0.028,0.027,1.529,1.538,3.859,3.621L3.637,28.63l-0.165,1.473l15.597,1.742l8.104,6.45l2.657,5.213l-11.545,7.422l6.367,8.312
	l-3.406,4.139l14.137,9.869l4.091,5.343l1.715-1.288l7.475,5.22l19.6-25.555l28.313-21.264L89.69,29.04z M74.596,16.49l0.53,0.512
	l-0.733-0.382L74.596,16.49z M28.58,37.793c1.897,0.634,3.634,0.602,5.229,0.562c1.282-0.032,2.473-0.059,3.665,0.236l-6.391,4.11
	L28.58,37.793z M20.44,51.307l11.318-7.277l7.415-4.765c0.397,0.221,0.802,0.513,1.214,0.85l-5.776,7.021l-0.967,1.174l-8.025,9.757
	L20.44,51.307z M39.757,76.524l-0.363-0.473l0.515,0.358L39.757,76.524z M48.352,80.497L23.408,63.083l18.114-22.016
	c2.289,1.961,5.271,3.535,8.305,4.444l1.464,0.386c1.382,0.316,2.748,0.498,4.032,0.498c0.26,0,0.517-0.006,0.769-0.021
	c2.469-0.139,4.423-0.977,5.651-2.421c0.947-1.115,1.296-2.299,1.038-3.521c-0.495-2.329-3.174-4.304-5.897-5.84l-1.305-0.706
	c-0.898-0.466-1.765-0.883-2.517-1.244l-0.281-0.136c-0.481-0.231-1.008-0.574-1.558-0.989l-1.21-1.066l14.491-17.319l25.363,13.24
	L48.352,80.497z M85.983,33.871c0.39-0.065,0.67-0.01,0.882,0.21c0.325,0.333,0.422,0.921-0.264,1.587
	c-0.667,0.646-1.315,0.84-1.665,0.952l0.609,1.157c0.468-0.146,1.04-0.401,1.678-0.979l0.873,0.902l0.804-0.782l-0.922-0.949
	c0.816-1.136,0.768-2.362-0.05-3.207c-0.225-0.229-0.468-0.388-0.724-0.487l1.575-2.055l5.519,5.343L71.617,52.599L85.983,33.871z
	 M84.037,28.896c0.476-1.425,0.034-2.666-1.071-3.269c-1.184-0.644-2.297-0.101-3.515,0.972c-0.875,0.774-1.478,1.028-2.069,0.707
	c-0.602-0.328-0.7-1.1-0.252-1.921c0.427-0.787,1.067-1.354,1.658-1.701l-1.031-1.012c-0.55,0.303-1.224,0.987-1.689,1.783
	l-1.25-0.68l-0.581,1.069l1.325,0.721c-0.531,1.529,0.006,2.805,1.1,3.4c1.157,0.632,2.196,0.38,3.521-0.767
	c1.026-0.874,1.588-1.17,2.113-0.882c0.439,0.239,0.729,0.81,0.234,1.712c-0.474,0.875-1.08,1.28-1.401,1.504l0.992,0.992
	c0.433-0.3,0.939-0.741,1.408-1.537l1.185,0.645l0.573-1.057L84.037,28.896z"/>
</svg>
