<?xml version="1.0" encoding="utf-8"?>
<!-- Generator: Adobe Illustrator 16.0.0, SVG Export Plug-In . SVG Version: 6.00 Build 0)  -->
<!DOCTYPE svg PUBLIC "-//W3C//DTD SVG 1.1//EN" "http://www.w3.org/Graphics/SVG/1.1/DTD/svg11.dtd">
<svg version="1.1" id="Layer_1" xmlns="http://www.w3.org/2000/svg" xmlns:xlink="http://www.w3.org/1999/xlink" x="0px" y="0px"
	 width="100px" height="100px" viewBox="0 0 100 100" enable-background="new 0 0 100 100" xml:space="preserve">
<g>
	<rect x="72.016" y="25.015" transform="matrix(-0.9698 -0.2441 0.2441 -0.9698 137.6225 70.7395)" width="2.356" height="3.655"/>
	<rect x="85.932" y="50.11" transform="matrix(0.9697 0.2445 -0.2445 0.9697 15.2025 -19.8994)" width="3.655" height="2.358"/>
	<rect x="62.141" y="63.975" transform="matrix(0.9697 0.2445 -0.2445 0.9697 18.0093 -13.4837)" width="2.357" height="3.656"/>
	<rect x="47.018" y="40.231" transform="matrix(-0.9697 -0.2441 0.2441 -0.9697 86.1038 93.491)" width="3.655" height="2.359"/>
	<rect x="52.096" y="31.181" transform="matrix(-0.7175 -0.6965 0.6965 -0.7175 70.0759 93.1388)" width="3.656" height="2.357"/>
	<rect x="81.107" y="30.124" transform="matrix(-0.7174 -0.6967 0.6967 -0.7174 119.0566 112.1989)" width="2.358" height="3.655"/>
	<rect x="80.759" y="59.123" transform="matrix(0.7173 0.6967 -0.6967 0.7173 65.3611 -40.4954)" width="3.655" height="2.358"/>
	<rect x="53.056" y="58.904" transform="matrix(0.7176 0.6965 -0.6965 0.7176 57.6134 -20.6212)" width="2.357" height="3.654"/>
	<rect x="47.836" y="50.09" transform="matrix(0.2794 0.9602 -0.9602 0.2794 85.1732 -9.6505)" width="2.36" height="3.655"/>
	<rect x="60.78" y="25.892" transform="matrix(-0.2789 -0.9603 0.9603 -0.2789 54.0735 94.7439)" width="3.655" height="2.357"/>
	<path d="M67.169,46.234c0.118,0.472,0.591,0.825,1.18,0.825c0.118,0,0.234,0,0.353,0l20.873-5.66
		c0.591-0.117,0.941-0.825,0.827-1.415c-0.118-0.59-0.827-0.943-1.418-0.825l-20.869,5.66
		C67.405,44.937,67.051,45.527,67.169,46.234z"/>
	<rect x="72.02" y="64.437" transform="matrix(0.2792 0.9602 -0.9602 0.2792 116.235 -23.615)" width="3.655" height="2.357"/>
	<path d="M75.777,17.699c-1.414-0.354-2.712-0.59-4.127-0.708c-1.062-0.118-2.004-0.118-3.067-0.118
		c-6.484,0-12.616,2.123-17.567,5.778v-0.236c-0.236-1.415-1.651-2.477-3.067-2.24l-3.066,0.589l-0.472-2.594
		c-0.117-0.59-0.708-1.062-1.415-0.944c-0.59,0.118-1.062,0.708-0.944,1.416l0.472,2.594l-9.434,1.651l-0.59-3.42
		c-0.118-0.589-0.707-1.061-1.415-0.943c-0.59,0.118-1.062,0.708-0.944,1.415l0.59,3.42l-9.906,1.651l-0.589-3.184
		c-0.118-0.59-0.708-1.062-1.415-0.943c-0.59,0.118-1.062,0.707-0.944,1.415l0.589,3.184l-8.726,1.533L9.272,24.42
		c-0.118-0.59-0.708-1.061-1.416-0.944c-0.589,0.118-1.061,0.708-0.944,1.416l0.472,2.594l-3.066,0.59
		c-0.707,0.118-1.297,0.472-1.769,1.061c-0.471,0.59-0.589,1.297-0.471,2.005L9.508,74.77c0.235,1.297,1.297,2.242,2.712,2.242
		c0.118,0,0.354,0,0.472,0l37.262-6.367l0.473-0.236l-2.005-1.887L12.22,74.652h-0.118c-0.117,0-0.354-0.119-0.354-0.236
		l-5.66-33.017l34.785-5.896c0.472-0.943,0.826-1.769,1.416-2.594L5.734,39.16l-1.415-8.373c0-0.118,0-0.235,0.118-0.235
		c0,0,0.118-0.118,0.235-0.118l3.066-0.59l0.472,2.594c0.118,0.589,0.59,0.943,1.179,0.943c0.118,0,0.118,0,0.236,0
		c0.589-0.117,1.061-0.707,0.943-1.415l-0.472-2.595l8.727-1.533l0.354,2.123c0.117,0.59,0.589,0.943,1.179,0.943
		c0.117,0,0.117,0,0.235,0c0.59-0.118,1.061-0.708,0.944-1.416l-0.472-2.476l9.905-1.65l0.354,1.887
		c0.118,0.589,0.59,0.943,1.179,0.943c0.118,0,0.118,0,0.236,0c0.589-0.118,1.061-0.708,0.943-1.416l-0.354-1.886l9.433-1.651
		l0.472,2.594c0.118,0.59,0.59,0.943,1.179,0.943c0.118,0,0.118,0,0.236,0c0.589-0.118,1.061-0.707,0.943-1.415l-0.472-2.595
		l3.184-0.589c0.118,0,0.354,0.117,0.354,0.235l0.235,1.651c-1.769,1.651-3.419,3.419-4.716,5.424
		c-1.887,2.83-3.302,5.896-4.246,9.316c-4.009,15.801,5.66,31.839,21.343,35.728c2.358,0.592,4.835,0.945,7.193,0.945
		c13.561,0,25.233-9.197,28.535-22.287C101.131,37.626,91.579,21.589,75.777,17.699z M94.881,52.838
		c-3.065,12.146-13.915,20.518-26.298,20.518c-2.238,0-4.48-0.236-6.602-0.826c-14.504-3.654-23.348-18.395-19.692-32.898
		c3.066-12.028,13.795-20.518,26.294-20.518c2.242,0,4.482,0.236,6.604,0.825C89.692,23.594,98.534,38.334,94.881,52.838z"/>
	<path d="M22.125,44.112c-2.24,0.354-3.891,1.533-4.716,3.538c-0.826,1.886-0.944,4.716-0.354,8.254
		c0.589,3.419,1.651,6.014,3.065,7.664c1.416,1.65,3.302,2.24,5.542,1.887c2.358-0.354,3.892-1.533,4.717-3.537
		c0.825-2.005,0.943-4.717,0.354-8.254c-0.59-3.42-1.651-6.014-3.066-7.548C26.252,44.348,24.366,43.758,22.125,44.112z
		 M28.492,60.621c-0.472,1.532-1.533,2.357-3.065,2.711c-1.533,0.236-2.83-0.235-3.774-1.533c-0.943-1.297-1.65-3.418-2.122-6.367
		c-0.472-2.947-0.472-5.188,0-6.721c0.472-1.533,1.533-2.358,3.066-2.595c1.533-0.236,2.83,0.236,3.773,1.534
		c0.943,1.296,1.65,3.418,2.122,6.368C28.964,56.965,28.964,59.205,28.492,60.621z"/>
	<path d="M38.28,43.522c0.118-0.708,0.236-1.416,0.354-2.123c-0.118,0-0.118,0-0.236,0c-2.005,0.354-3.419,1.179-4.363,2.713
		c-0.943,1.415-1.296,3.184-0.943,5.424c0.354,2.005,1.179,3.419,2.358,4.245c1.061,0.707,2.358,1.061,3.773,0.943
		c-0.235-0.707-0.472-1.297-0.589-2.004c-0.59-0.119-1.179-0.354-1.651-0.708c-0.825-0.708-1.297-1.651-1.533-3.066
		c-0.236-1.533-0.118-2.83,0.472-3.773C36.393,44.348,37.218,43.758,38.28,43.522z"/>
	<path d="M39.694,62.979c1.061-0.235,2.005-0.472,2.949-0.825c-0.236-0.472-0.59-1.062-0.944-1.769
		c-0.708,0.354-1.415,0.59-2.358,0.707c-0.943,0.117-1.886,0.236-2.595,0.117l0.354,2.006C37.69,63.215,38.634,63.215,39.694,62.979
		z"/>
</g>
</svg>
